<?xml version="1.0" standalone="no"?><!DOCTYPE svg PUBLIC "-//W3C//DTD SVG 1.1//EN" "http://www.w3.org/Graphics/SVG/1.1/DTD/svg11.dtd"><svg width="100%" height="100%" viewBox="0 0 500 500" version="1.1" xmlns="http://www.w3.org/2000/svg" xmlns:xlink="http://www.w3.org/1999/xlink" xml:space="preserve" style="fill-rule:evenodd;clip-rule:evenodd;stroke-linejoin:round;stroke-miterlimit:1.41421;"><path d="M250,0c-138.055,0 -250,111.945 -250,250c0,138.055 111.945,250 250,250c138.055,0 250,-111.945 250,-250c0,-138.055 -111.864,-250 -250,-250ZM277.742,394.256c-7.833,7.833 -17.788,11.341 -28.395,11.341c-10.607,0 -20.561,-3.59 -28.394,-11.341c-7.833,-7.833 -12.076,-17.053 -12.076,-27.742c0,-9.954 4.243,-19.908 12.076,-27.741c7.833,-7.833 17.787,-12.076 28.394,-12.076c11.342,0 20.562,4.243 28.395,12.076c7.832,7.833 12.075,17.053 12.075,27.741c0,10.689 -4.243,19.909 -12.075,27.742ZM287.696,156.984c-2.122,10.689 -4.977,21.296 -7.099,32.637c-3.59,12.076 -7.098,27.008 -10.688,44.713c-3.59,17.787 -7.833,40.47 -12.076,67.477l-16.319,0c-4.242,-27.007 -8.485,-49.037 -12.075,-67.477c-3.59,-18.44 -7.099,-33.371 -9.955,-45.447c-2.855,-12.81 -5.711,-24.151 -7.833,-33.371c-2.121,-9.22 -2.855,-17.053 -2.855,-22.765c-0.735,-11.341 3.59,-20.561 12.075,-27.741c8.486,-7.833 17.788,-11.342 29.129,-11.342c11.341,0 21.296,3.59 29.129,11.342c7.832,7.833 12.075,17.053 12.075,27.741c0,5.793 -1.387,13.545 -3.508,24.233Z" style="fill:#000;fill-rule:nonzero;"/></svg>