<?xml version="1.0" encoding="UTF-8" standalone="no"?>
<!DOCTYPE svg PUBLIC "-//W3C//DTD SVG 1.1//EN" "http://www.w3.org/Graphics/SVG/1.1/DTD/svg11.dtd">
<svg width="100%" height="100%" viewBox="0 0 16 15" version="1.1" xmlns="http://www.w3.org/2000/svg" xmlns:xlink="http://www.w3.org/1999/xlink" xml:space="preserve" style="fill-rule:evenodd;clip-rule:evenodd;stroke-linecap:round;stroke-linejoin:round;stroke-miterlimit:1.41421;">
    <path d="M10.196,9.461L14.061,12.832C14.264,13.035 14.264,13.364 14.061,13.567C13.858,13.77 13.529,13.77 13.326,13.567L9.461,10.196C7.395,11.893 4.335,11.776 2.406,9.847C0.353,7.793 0.353,4.459 2.406,2.406C4.459,0.353 7.793,0.353 9.847,2.406C11.776,4.335 11.893,7.395 10.196,9.461L10.196,9.461ZM3.145,3.145C4.79,1.499 7.462,1.499 9.108,3.145C10.754,4.79 10.754,7.462 9.108,9.108C7.462,10.754 4.79,10.754 3.145,9.108C1.499,7.462 1.499,4.79 3.145,3.145L3.145,3.145Z" style="fill:black;stroke-width:1px;stroke:black;"/>
</svg>
