<?xml version="1.0" standalone="no"?><!DOCTYPE svg PUBLIC "-//W3C//DTD SVG 1.1//EN" "http://www.w3.org/Graphics/SVG/1.1/DTD/svg11.dtd"><svg width="100%" height="100%" viewBox="0 0 500 466" version="1.1" xmlns="http://www.w3.org/2000/svg" xmlns:xlink="http://www.w3.org/1999/xlink" xml:space="preserve" style="fill-rule:evenodd;clip-rule:evenodd;stroke-linejoin:round;stroke-miterlimit:1.41421;"><path d="M222.437,17.045l-213.65,384.812c-17.775,32.4 -10.225,63.381 37.819,63.381l406.762,0c48.156,0 55.6,-30.981 37.819,-63.381l-218.069,-383.787c-4.419,-8.644 -10.837,-18.194 -24.462,-18.069c-14.488,0.263 -21.682,8.4 -26.219,17.044ZM271.38,380.284c-6.028,6.028 -13.688,8.728 -21.851,8.728c-8.163,0 -15.824,-2.762 -21.852,-8.728c-6.028,-6.028 -9.293,-13.123 -9.293,-21.349c0,-7.661 3.265,-15.321 9.293,-21.349c6.028,-6.028 13.689,-9.294 21.852,-9.294c8.728,0 15.823,3.266 21.851,9.294c6.028,6.028 9.293,13.123 9.293,21.349c0,8.226 -3.265,15.321 -9.293,21.349ZM256.059,309.141c3.265,-20.785 6.53,-38.241 9.293,-51.929c2.763,-13.626 5.463,-25.117 8.226,-34.411c1.633,-8.728 3.83,-16.891 5.463,-25.116c1.632,-8.226 2.7,-14.192 2.7,-18.65c0,-8.226 -3.265,-15.321 -9.293,-21.349c-6.028,-5.965 -13.689,-8.728 -22.417,-8.728c-8.728,0 -15.887,2.7 -22.417,8.728c-6.53,5.526 -9.858,12.621 -9.293,21.349c0,4.396 0.565,10.424 2.198,17.519c1.632,7.096 3.83,15.824 6.028,25.682c2.197,9.294 4.897,20.784 7.66,34.976c2.763,14.191 6.028,31.144 9.294,51.929l12.558,0Z" style="fill:#000;"/></svg>