<?xml version="1.0" standalone="no"?><!DOCTYPE svg PUBLIC "-//W3C//DTD SVG 1.1//EN" "http://www.w3.org/Graphics/SVG/1.1/DTD/svg11.dtd"><svg width="100%" height="100%" viewBox="0 0 500 500" version="1.1" xmlns="http://www.w3.org/2000/svg" xmlns:xlink="http://www.w3.org/1999/xlink" xml:space="preserve" style="fill-rule:evenodd;clip-rule:evenodd;stroke-linejoin:round;stroke-miterlimit:1.41421;"><path d="M250,0c137.979,0 250,112.021 250,250c0,137.979 -112.021,250 -250,250c-137.979,0 -250,-112.021 -250,-250c0,-137.979 112.021,-250 250,-250ZM255.5,201.781l-11,0c-12.143,0 -22,9.858 -22,22l0,166c0,12.142 9.858,22 22,22l11,0c12.142,0 22,-9.858 22,-22l0,-166c0,-12.142 -9.857,-22 -22,-22ZM255.5,88.219l-11,0c-12.142,0.001 -22,9.858 -22,22l0,11c0,12.142 9.858,22 22,22l11,0c12.142,0 22,-9.858 22,-22l0,-11c0,-12.142 -9.858,-21.999 -22,-22Z" style="fill:#000;"/></svg>