<?xml version="1.0" standalone="no"?><!DOCTYPE svg PUBLIC "-//W3C//DTD SVG 1.1//EN" "http://www.w3.org/Graphics/SVG/1.1/DTD/svg11.dtd"><svg width="100%" height="100%" viewBox="0 0 500 500" version="1.1" xmlns="http://www.w3.org/2000/svg" xmlns:xlink="http://www.w3.org/1999/xlink" xml:space="preserve" style="fill-rule:evenodd;clip-rule:evenodd;stroke-linejoin:round;stroke-miterlimit:1.41421;"><path d="M250,0c-138.068,0 -250,111.932 -250,250c0,138.068 111.932,250 250,250c138.068,0 250,-111.932 250,-250c0,-138.068 -111.932,-250 -250,-250ZM374.594,159.471c-47.311,67.836 -94.658,135.651 -142.025,203.445c-3.387,4.841 -7.351,7.272 -11.315,7.272c-3.636,0 -7.265,-2.046 -10.423,-6.139c-25.816,-33.415 -51.645,-66.824 -77.354,-100.318c-3.978,-5.183 -7.45,-10.772 -10.972,-16.29c-2.959,-4.642 -2.303,-9.169 1.162,-13.332c1.233,-1.483 2.481,-2.959 3.835,-4.328c4.856,-4.919 8.762,-7.436 12.983,-7.436c3.365,0 6.93,1.604 11.336,4.869c19.506,14.473 38.534,29.587 57.762,44.438c3.48,2.688 6.944,5.397 10.766,8.377c7.664,-8.826 14.993,-17.232 22.279,-25.666c32.653,-37.807 65.298,-75.614 97.93,-113.436c6.459,-7.486 10.744,-11.115 15.499,-11.115c4.207,0 8.784,2.838 15.557,8.356c9.467,7.714 10.052,11.158 2.98,21.303Z" style="fill:#000;fill-rule:nonzero;"/></svg>