<?xml version="1.0" standalone="no"?><!DOCTYPE svg PUBLIC "-//W3C//DTD SVG 1.1//EN" "http://www.w3.org/Graphics/SVG/1.1/DTD/svg11.dtd"><svg width="100%" height="100%" viewBox="0 0 600 232" version="1.1" xmlns="http://www.w3.org/2000/svg" xmlns:xlink="http://www.w3.org/1999/xlink" xml:space="preserve" style="fill-rule:evenodd;clip-rule:evenodd;stroke-linejoin:round;stroke-miterlimit:1.41421;"><g id="Lager 1"><text x="194.62px" y="152.453px" style="font-family:'Futura-CondensedMedium';font-size:84.213px;fill:#263238;">EAS<tspan x="291.704px 324.23px 353.918px 394.175px 435.007px 462.516px 497.427px 531.762px " y="152.453px 152.453px 152.453px 152.453px 152.453px 152.453px 152.453px 152.453px ">YFOOTBAL</tspan>L</text><path d="M47.798,34.464c8.607,-2.22 18.78,1.363 22.989,9.424c3.092,5.502 2.125,12.746 -2.002,17.444c-6.74,8.159 -19.937,9.329 -28.299,3.052c-4.713,-3.418 -7.775,-9.288 -6.945,-15.159c0.897,-7.367 7.231,-13.155 14.257,-14.761" style="fill:#f4f4f4;fill-rule:nonzero;"/><path d="M14.516,101.114c6.019,-10.351 17.324,-15.838 27.565,-21.163c-2.929,6.55 -4.413,14.423 -1.769,21.273c-5.966,-1.934 -13.102,-2.002 -18.127,2.233c-6.346,5.149 -8.035,13.836 -8.02,21.586c-1.937,-7.765 -3.856,-16.507 0.351,-23.929" style="fill:#f4f4f4;fill-rule:nonzero;"/><path d="M93.286,160.04c1.905,11.276 8.429,21.135 16.535,28.968c4.956,5.106 10.744,9.261 16.261,13.741c-10.649,-0.449 -20.306,-5.786 -28.913,-11.659c-5.828,-3.934 -11.125,-8.564 -16.492,-13.074c7.856,-2.136 11.221,-10.717 12.609,-17.976" style="fill:#f4f4f4;fill-rule:nonzero;"/><path d="M135,169.807c8.677,-2.508 19.665,2.901 20.862,12.338c1.173,8.063 -5.978,15.172 -13.658,16.016c-6.237,0.98 -13.075,-1.486 -16.738,-6.73c-2.546,-3.58 -3.172,-8.429 -1.483,-12.515c1.879,-4.614 6.236,-7.951 11.017,-9.109" style="fill:#f4f4f4;fill-rule:nonzero;"/><path d="M54.473,77.023c-4.194,1.676 -8.539,4.126 -10.541,8.401c-3.172,6.225 -1.13,13.959 3.297,19.041c0.639,-5.448 4.017,-10.677 9.411,-12.353c9.028,-2.887 18.698,-0.872 27.66,1.28c17.052,4.493 33.243,11.752 49.014,19.542c2.736,1.401 5.475,2.846 8.251,4.222c-1.866,-2.343 -3.814,-4.603 -5.816,-6.823c-14.505,-15.635 -32.438,-29.186 -53.466,-34.305c-4.292,-0.937 -8.757,-1.521 -13.204,-1.521c-4.98,0 -9.936,0.731 -14.606,2.516Z" style="fill:#455a64;fill-rule:nonzero;"/><path d="M51.612,108.561c-0.476,2.601 1.553,4.549 2.821,6.578c4.738,7.259 8.647,15.034 12.366,22.881c1.648,3.719 3.623,7.341 4.602,11.319c0.655,2.463 -2.493,3.349 -4.357,3.13c-6.755,-0.545 -13.019,-3.446 -19.298,-5.802c-8.99,-3.758 -17.841,-7.858 -26.557,-12.202c10.35,11.098 21.079,21.994 33.528,30.75c5.638,3.745 11.576,7.424 18.358,8.687c4.14,0.819 8.935,0.083 11.93,-3.13c3.323,-3.57 4.167,-8.688 4.234,-13.4c0.134,-8.976 -2.9,-17.653 -7.273,-25.4c-4.464,-8.387 -9.339,-16.6 -12.934,-25.425c-1.527,-3.636 -2.454,-7.585 -2.098,-11.534c-7.149,0.804 -14.613,5.938 -15.322,13.548Z" style="fill:#455a64;fill-rule:nonzero;"/></g></svg>