<?xml version="1.0" standalone="no"?><!DOCTYPE svg PUBLIC "-//W3C//DTD SVG 1.1//EN" "http://www.w3.org/Graphics/SVG/1.1/DTD/svg11.dtd"><svg width="100%" height="100%" viewBox="0 0 734 232" version="1.1" xmlns="http://www.w3.org/2000/svg" xmlns:xlink="http://www.w3.org/1999/xlink" xml:space="preserve" style="fill-rule:evenodd;clip-rule:evenodd;stroke-linejoin:round;stroke-miterlimit:1.41421;"><g id="Lager-1"><path d="M185.252,82.985l27.273,0l0,8.68l-17.015,0l0,24.116l15.091,0l0,8.68l-15.091,0l0,25.991l17.015,0l0,8.68l-27.273,0l0,-76.147l0,0Z" style="fill:#fff;fill-rule:nonzero;"/><path d="M237.845,82.985l7.99,0l16.324,76.147l-10.16,0l-2.86,-14.845l-15.091,0l-2.91,14.845l-9.864,0l16.571,-76.147l0,0ZM247.659,136.347l-2.268,-12.132c-1.513,-8.253 -2.746,-17.064 -3.699,-26.435c-0.46,4.57 -1.052,9.198 -1.776,13.883c-0.723,4.686 -1.578,9.658 -2.564,14.919l-1.874,9.765l12.181,0Z" style="fill:#fff;fill-rule:nonzero;"/><path d="M293.574,84.563l0,10.012c-3.123,-2.236 -5.934,-3.354 -8.433,-3.354c-2.696,0 -4.899,0.954 -6.609,2.86c-1.709,1.809 -2.564,4.225 -2.564,7.25c0,2.663 0.608,4.948 1.825,6.855c0.624,1.02 1.652,2.335 3.082,3.946c1.43,1.611 3.28,3.551 5.548,5.819c4.176,4.242 7.02,7.908 8.532,10.998c1.513,2.992 2.269,6.658 2.269,10.998c0,5.886 -1.66,10.735 -4.981,14.549c-3.321,3.715 -7.579,5.573 -12.774,5.573c-4.372,0 -8.104,-1.2 -11.195,-3.6l0,-10.16c3.65,2.663 6.971,3.995 9.963,3.995c2.794,0 4.981,-0.929 6.559,-2.786c1.578,-1.858 2.367,-4.381 2.367,-7.571c0,-2.762 -0.608,-5.244 -1.825,-7.447c-0.624,-1.052 -1.496,-2.26 -2.614,-3.625c-1.117,-1.364 -2.515,-2.885 -4.192,-4.562c-2.597,-2.564 -4.751,-4.833 -6.46,-6.805c-1.71,-1.973 -2.976,-3.699 -3.798,-5.179c-1.578,-2.893 -2.367,-6.543 -2.367,-10.948c0,-5.951 1.545,-10.67 4.636,-14.155c3.123,-3.518 7.315,-5.277 12.576,-5.277c3.65,0 7.135,0.872 10.455,2.614l0,0Z" style="fill:#fff;fill-rule:nonzero;"/><path d="M300.676,82.985l10.85,0l5.03,16.571c0.165,0.493 0.329,1.035 0.493,1.627c0.165,0.592 0.362,1.233 0.592,1.924c1.874,5.984 3.156,11.014 3.847,15.091c0.592,-4.077 1.085,-6.921 1.479,-8.532l1.579,-6.806l0.591,-2.663l4.242,-17.212l10.702,0l-13.267,43.4l0,32.747l-10.258,0l0,-32.747l-15.88,-43.4l0,0Z" style="fill:#fff;fill-rule:nonzero;"/><path d="M345.753,82.985l27.421,0l0,8.68l-17.163,0l0,24.067l15.486,0l0,8.68l-15.486,0l0,34.72l-10.258,0l0,-76.147Z" style="fill:#ff5252;fill-rule:nonzero;"/><path d="M419.483,122.933c0,13.447 -1.496,22.998 -4.488,28.653c-2.992,5.655 -8.006,8.483 -15.042,8.483c-7.398,0 -12.609,-3.041 -15.634,-9.124c-2.992,-5.951 -4.488,-16.521 -4.488,-31.711c0,-13.546 1.48,-23.13 4.439,-28.753c2.992,-5.655 8.055,-8.482 15.19,-8.482c6.378,0 11.113,2.186 14.203,6.559c2.039,2.926 3.518,7.085 4.439,12.477c0.921,4.998 1.381,12.297 1.381,21.898l0,0ZM408.732,124.018c0,-13.185 -0.592,-21.931 -1.776,-26.238c-1.183,-4.34 -3.6,-6.51 -7.25,-6.51c-3.649,0 -6.082,1.99 -7.299,5.968c-1.183,4.011 -1.775,12.066 -1.775,24.166c0,11.146 0.625,18.872 1.874,23.179c1.282,4.077 3.682,6.116 7.2,6.116c3.453,0 5.82,-1.907 7.102,-5.721c1.282,-3.781 1.924,-10.768 1.924,-20.96Z" style="fill:#ff5252;fill-rule:nonzero;"/><path d="M467.765,122.933c0,13.447 -1.496,22.998 -4.488,28.653c-2.992,5.655 -8.006,8.483 -15.042,8.483c-7.397,0 -12.609,-3.041 -15.633,-9.124c-2.992,-5.951 -4.488,-16.521 -4.488,-31.711c0,-13.546 1.479,-23.13 4.438,-28.753c2.992,-5.655 8.056,-8.482 15.19,-8.482c6.379,0 11.113,2.186 14.204,6.559c2.038,2.926 3.518,7.085 4.438,12.477c0.921,4.998 1.381,12.297 1.381,21.898l0,0ZM457.014,124.018c0,-13.185 -0.592,-21.931 -1.775,-26.238c-1.184,-4.34 -3.601,-6.51 -7.25,-6.51c-3.65,0 -6.083,1.99 -7.299,5.968c-1.184,4.011 -1.776,12.066 -1.776,24.166c0,11.146 0.625,18.872 1.874,23.179c1.283,4.077 3.683,6.116 7.201,6.116c3.452,0 5.819,-1.907 7.102,-5.721c1.282,-3.781 1.923,-10.768 1.923,-20.96l0,0Z" style="fill:#ff5252;fill-rule:nonzero;"/><path d="M472.549,82.985l33.388,0l0,8.976l-11.491,0l0,67.171l-10.06,0l0,-67.171l-11.837,0l0,-8.976Z" style="fill:#ff5252;fill-rule:nonzero;"/><path d="M511.609,82.985l13.908,0c10.883,0 16.324,6.756 16.324,20.27c0,5.162 -0.707,8.992 -2.121,11.491c-1.413,2.499 -3.912,4.389 -7.496,5.671c4.11,1.644 6.921,3.748 8.433,6.313c1.546,2.532 2.318,6.346 2.318,11.442c0,13.973 -5.984,20.96 -17.951,20.96l-13.415,0l0,-76.147l0,0ZM521.275,116.521c3.979,0 6.741,-0.92 8.286,-2.762c1.545,-1.939 2.318,-5.342 2.318,-10.208c0,-8.22 -2.959,-12.33 -8.877,-12.33l-0.79,0l-0.443,0c-0.263,0 -0.428,0.016 -0.494,0.049l0,25.251ZM521.275,150.353c4.209,0 7.119,-0.904 8.73,-2.712c1.611,-1.808 2.416,-5.08 2.416,-9.814c0,-4.866 -0.838,-8.269 -2.515,-10.209c-1.644,-1.973 -4.521,-2.959 -8.631,-2.959l0,25.694Z" style="fill:#ff5252;fill-rule:nonzero;"/><path d="M564.33,82.985l7.99,0l16.324,76.147l-10.16,0l-2.86,-14.845l-15.091,0l-2.91,14.845l-9.864,0l16.571,-76.147ZM574.144,136.347l-2.268,-12.132c-1.513,-8.253 -2.746,-17.064 -3.699,-26.435c-0.46,4.57 -1.052,9.198 -1.776,13.883c-0.723,4.686 -1.578,9.658 -2.564,14.919l-1.874,9.765l12.181,0Z" style="fill:#ff5252;fill-rule:nonzero;"/><path d="M594.661,82.985l10.258,0l0,67.467l16.768,0l0,8.68l-27.026,0l0,-76.147l0,0Z" style="fill:#ff5252;fill-rule:nonzero;"/><path d="M628.098,82.985l10.258,0l0,67.467l16.769,0l0,8.68l-27.027,0l0,-76.147Z" style="fill:#ff5252;fill-rule:nonzero;"/><g><path d="M41.302,49.674c7.045,-1.817 15.372,1.115 18.818,7.714c2.531,4.503 1.739,10.433 -1.639,14.278c-5.517,6.679 -16.319,7.636 -23.164,2.499c-3.858,-2.798 -6.364,-7.603 -5.685,-12.409c0.735,-6.03 5.919,-10.768 11.67,-12.082" style="fill:#fff;fill-rule:nonzero;"/><path d="M14.06,104.23c4.926,-8.473 14.18,-12.965 22.563,-17.323c-2.398,5.361 -3.613,11.806 -1.448,17.413c-4.884,-1.583 -10.725,-1.639 -14.838,1.827c-5.195,4.215 -6.577,11.326 -6.565,17.669c-1.585,-6.356 -3.156,-13.511 0.288,-19.586" style="fill:#fff;fill-rule:nonzero;"/><path d="M78.536,152.463c1.559,9.23 6.9,17.3 13.535,23.711c4.056,4.18 8.794,7.581 13.31,11.248c-8.717,-0.367 -16.621,-4.736 -23.667,-9.543c-4.77,-3.22 -9.106,-7.01 -13.499,-10.702c6.431,-1.748 9.185,-8.772 10.321,-14.714" style="fill:#fff;fill-rule:nonzero;"/><path d="M112.681,160.458c7.102,-2.053 16.096,2.374 17.076,10.099c0.96,6.6 -4.893,12.419 -11.179,13.11c-5.106,0.802 -10.703,-1.217 -13.701,-5.509c-2.084,-2.931 -2.597,-6.9 -1.214,-10.244c1.538,-3.777 5.104,-6.508 9.018,-7.456" style="fill:#fff;fill-rule:nonzero;"/><path d="M46.766,84.51c-3.433,1.372 -6.99,3.377 -8.628,6.877c-2.597,5.095 -0.925,11.426 2.699,15.585c0.523,-4.459 3.288,-8.739 7.703,-10.111c7.39,-2.363 15.305,-0.714 22.641,1.048c13.957,3.677 27.21,9.619 40.12,15.996c2.239,1.146 4.481,2.329 6.753,3.456c-1.527,-1.918 -3.121,-3.768 -4.76,-5.585c-11.873,-12.798 -26.552,-23.89 -43.764,-28.08c-3.514,-0.767 -7.168,-1.245 -10.808,-1.245c-4.077,0 -8.133,0.598 -11.956,2.059l0,0Z" style="fill:#fff;fill-rule:nonzero;"/><path d="M44.424,110.325c-0.389,2.129 1.271,3.724 2.309,5.385c3.879,5.941 7.078,12.306 10.122,18.729c1.349,3.044 2.966,6.009 3.767,9.265c0.536,2.016 -2.04,2.741 -3.566,2.562c-5.529,-0.446 -10.657,-2.821 -15.796,-4.749c-7.359,-3.076 -14.604,-6.433 -21.738,-9.988c8.472,9.084 17.254,18.003 27.444,25.17c4.615,3.065 9.475,6.077 15.027,7.111c3.388,0.67 7.313,0.068 9.765,-2.562c2.72,-2.923 3.411,-7.112 3.465,-10.969c0.11,-7.347 -2.373,-14.45 -5.953,-20.791c-3.654,-6.865 -7.644,-13.588 -10.587,-20.811c-1.25,-2.977 -2.009,-6.209 -1.717,-9.441c-5.852,0.658 -11.961,4.86 -12.542,11.089l0,0Z" style="fill:#fff;fill-rule:nonzero;"/></g></g></svg>