<?xml version="1.0" encoding="UTF-8" standalone="no"?>
<!DOCTYPE svg PUBLIC "-//W3C//DTD SVG 1.1//EN" "http://www.w3.org/Graphics/SVG/1.1/DTD/svg11.dtd">
<svg width="100%" height="100%" viewBox="0 0 734 232" version="1.1" xmlns="http://www.w3.org/2000/svg" xmlns:xlink="http://www.w3.org/1999/xlink" xml:space="preserve" style="fill-rule:evenodd;clip-rule:evenodd;stroke-linejoin:round;stroke-miterlimit:1.41421;">
    <g id="Artboard1" transform="matrix(1.22239,0,0,1,0,0)">
        <g id="Lager-1" transform="matrix(0.818073,0,0,1,0,0)">
            <g transform="matrix(1.19938,0,0,1.19938,179.383,159.132)">
                <g>
                    <text x="0px" y="0px" style="font-family:'Futura-CondensedMedium', 'Futura', sans-serif;font-weight:500;font-stretch:condensed;font-size:84.213px;fill:white;">E<tspan x="34.804px 73.349px 109.715px 146.452px 180.351px 224.817px 269.86px 301.58px 340.701px 379.246px 411.336px " y="0px 0px 0px 0px 0px 0px 0px 0px 0px 0px 0px ">ASYFOOTBALL</tspan></text>
                </g>
            </g>
            <g>
                <g transform="matrix(0.818542,0,0,0.818542,2.17758,21.4635)">
                    <path d="M47.798,34.464C56.405,32.244 66.578,35.827 70.787,43.888C73.879,49.39 72.912,56.634 68.785,61.332C62.045,69.491 48.848,70.661 40.486,64.384C35.773,60.966 32.711,55.096 33.541,49.225C34.438,41.858 40.772,36.07 47.798,34.464" style="fill:white;fill-rule:nonzero;"/>
                </g>
                <g transform="matrix(0.818542,0,0,0.818542,2.17758,21.4635)">
                    <path d="M14.516,101.114C20.535,90.763 31.84,85.276 42.081,79.951C39.152,86.501 37.668,94.374 40.312,101.224C34.346,99.29 27.21,99.222 22.185,103.457C15.839,108.606 14.15,117.293 14.165,125.043C12.228,117.278 10.309,108.536 14.516,101.114" style="fill:white;fill-rule:nonzero;"/>
                </g>
                <g transform="matrix(0.818542,0,0,0.818542,2.17758,21.4635)">
                    <path d="M93.286,160.04C95.191,171.316 101.715,181.175 109.821,189.008C114.777,194.114 120.565,198.269 126.082,202.749C115.433,202.3 105.776,196.963 97.169,191.09C91.341,187.156 86.044,182.526 80.677,178.016C88.533,175.88 91.898,167.299 93.286,160.04" style="fill:white;fill-rule:nonzero;"/>
                </g>
                <g transform="matrix(0.818542,0,0,0.818542,2.17758,21.4635)">
                    <path d="M135,169.807C143.677,167.299 154.665,172.708 155.862,182.145C157.035,190.208 149.884,197.317 142.204,198.161C135.967,199.141 129.129,196.675 125.466,191.431C122.92,187.851 122.294,183.002 123.983,178.916C125.862,174.302 130.219,170.965 135,169.807" style="fill:white;fill-rule:nonzero;"/>
                </g>
                <g transform="matrix(0.818542,0,0,0.818542,2.17758,21.4635)">
                    <path d="M54.473,77.023C50.279,78.699 45.934,81.149 43.932,85.424C40.76,91.649 42.802,99.383 47.229,104.465C47.868,99.017 51.246,93.788 56.64,92.112C65.668,89.225 75.338,91.24 84.3,93.392C101.352,97.885 117.543,105.144 133.314,112.934C136.05,114.335 138.789,115.78 141.565,117.156C139.699,114.813 137.751,112.553 135.749,110.333C121.244,94.698 103.311,81.147 82.283,76.028C77.991,75.091 73.526,74.507 69.079,74.507C64.099,74.507 59.143,75.238 54.473,77.023L54.473,77.023Z" style="fill:white;fill-rule:nonzero;"/>
                </g>
                <g transform="matrix(0.818542,0,0,0.818542,2.17758,21.4635)">
                    <path d="M51.612,108.561C51.136,111.162 53.165,113.11 54.433,115.139C59.171,122.398 63.08,130.173 66.799,138.02C68.447,141.739 70.422,145.361 71.401,149.339C72.056,151.802 68.908,152.688 67.044,152.469C60.289,151.924 54.025,149.023 47.746,146.667C38.756,142.909 29.905,138.809 21.189,134.465C31.539,145.563 42.268,156.459 54.717,165.215C60.355,168.96 66.293,172.639 73.075,173.902C77.215,174.721 82.01,173.985 85.005,170.772C88.328,167.202 89.172,162.084 89.239,157.372C89.373,148.396 86.339,139.719 81.966,131.972C77.502,123.585 72.627,115.372 69.032,106.547C67.505,102.911 66.578,98.962 66.934,95.013C59.785,95.817 52.321,100.951 51.612,108.561L51.612,108.561Z" style="fill:white;fill-rule:nonzero;"/>
                </g>
            </g>
        </g>
    </g>
</svg>
