<?xml version="1.0" standalone="no"?><!DOCTYPE svg PUBLIC "-//W3C//DTD SVG 1.1//EN" "http://www.w3.org/Graphics/SVG/1.1/DTD/svg11.dtd"><svg width="100%" height="100%" viewBox="0 0 16 15" version="1.1" xmlns="http://www.w3.org/2000/svg" xmlns:xlink="http://www.w3.org/1999/xlink" xml:space="preserve" style="fill-rule:evenodd;clip-rule:evenodd;stroke-linecap:round;stroke-linejoin:round;stroke-miterlimit:1.41421;"><path d="M10.196,9.461l3.865,3.371c0.203,0.203 0.203,0.532 0,0.735c-0.203,0.203 -0.532,0.203 -0.735,0l-3.865,-3.371c-2.066,1.697 -5.126,1.58 -7.055,-0.349c-2.053,-2.054 -2.053,-5.388 0,-7.441c2.053,-2.053 5.387,-2.053 7.441,0c1.929,1.929 2.046,4.989 0.349,7.055ZM3.145,3.145c1.645,-1.646 4.317,-1.646 5.963,0c1.646,1.645 1.646,4.317 0,5.963c-1.646,1.646 -4.318,1.646 -5.963,0c-1.646,-1.646 -1.646,-4.318 0,-5.963Z" style="fill:#27ae60;stroke-width:1px;stroke:#27ae60;"/></svg>